# xmcd
#
# Track frame offsets: 
#        150
#        23490
#        44403
#        60149
#        74319
#        92890
#        111470
#        126989
#        148776
#        167130
#        183551
#        203284
#        226360
#
# Disc length: 3201 seconds
#
# Revision: 1
# Processed by: cddbd v1.5.2PL0 Copyright (c) Steve Scherf et al.
# Submitted via: ExactAudioCopyFreeDBPlugin 1.0
#
DISCID=b20c7f0d
DTITLE=Le Vent Du Nord - Tromper Le Temps
DYEAR=2012
DGENRE=Folklore
TTITLE0=Lettre à Durham
TTITLE1=Le Dragon de Chimay
TTITLE2=Toujours Amants
TTITLE3=Le Winnebago
TTITLE4=Le Souhait
TTITLE5=Manteau d'Hiver
TTITLE6=Adieu Marie
TTITLE7=Le Coeur de ma Mère ~ Le Rêve d'Adrien
TTITLE8=Le Vigneron
TTITLE9=Le Diable et le Fermier
TTITLE10=Dans les Cachots
TTITLE11=La Soirée du Hockey
TTITLE12=Souffle d'Ange
EXTD=
EXTT0=
EXTT1=
EXTT2=
EXTT3=
EXTT4=
EXTT5=
EXTT6=
EXTT7=
EXTT8=
EXTT9=
EXTT10=
EXTT11=
EXTT12=
PLAYORDER=
